<svg xmlns="http://www.w3.org/2000/svg" viewBox="0 0 630 560"><g transform="translate(0 20)"><path fill="#E87762" d="M90 385V210C90 107 169 54 247 54c63 0 99 28 99 70-87 12-126 60-126 131v37c0 50-51 77-130 93Z"/><path fill="#F5EFE4" d="M221 194c75 7 117 73 134 144 14-55 8-92-23-123-17-18-7-40 16-61 34-32 39-76 65-108 34-40 73-61 127-61v264c0 91-47 153-129 153-111 0-180-84-190-208Z"/><circle fill="#E87762" cx="374" cy="162" r="39"/></g><text x="315" y="514" text-anchor="middle" font-family="Commissioner,Arial,sans-serif" font-weight="600" font-size="77" fill="#F5EFE4">núcleo vivo</text></svg>