<svg xmlns="http://www.w3.org/2000/svg" viewBox="0 0 920 260" role="img" aria-labelledby="t d">
  <title id="t">Núcleo Vivo</title>
  <desc id="d">Logotipo tridimensional de Núcleo Vivo en turquesa y azul tinta.</desc>
  <defs>
    <linearGradient id="coral" x1="0" y1="0" x2="1" y2="1">
      <stop offset="0" stop-color="#b6fff1"/>
      <stop offset=".2" stop-color="#72efdb"/>
      <stop offset=".55" stop-color="#28dcc4"/>
      <stop offset=".82" stop-color="#10a997"/>
      <stop offset="1" stop-color="#07685f"/>
    </linearGradient>
    <linearGradient id="plum" x1=".08" y1="0" x2=".95" y2="1">
      <stop offset="0" stop-color="#637b99"/>
      <stop offset=".2" stop-color="#3c5370"/>
      <stop offset=".52" stop-color="#24354c"/>
      <stop offset=".8" stop-color="#101828"/>
      <stop offset="1" stop-color="#080f1c"/>
    </linearGradient>
    <radialGradient id="nucleus" cx=".3" cy=".2" r=".9">
      <stop offset="0" stop-color="#dcfff7"/>
      <stop offset=".22" stop-color="#72efdb"/>
      <stop offset=".68" stop-color="#28dcc4"/>
      <stop offset="1" stop-color="#087f73"/>
    </radialGradient>
    <linearGradient id="type" x1="0" y1="0" x2="0" y2="1">
      <stop offset="0" stop-color="#3c5370"/>
      <stop offset=".52" stop-color="#101828"/>
      <stop offset="1" stop-color="#080f1c"/>
    </linearGradient>
    <filter id="shadow" x="-35%" y="-35%" width="190%" height="200%">
      <feDropShadow dx="0" dy="11" stdDeviation="10" flood-color="#101828" flood-opacity=".28"/>
      <feDropShadow dx="0" dy="2" stdDeviation="2" flood-color="#FFFFFF" flood-opacity=".25"/>
    </filter>
    <filter id="textShadow" x="-20%" y="-45%" width="150%" height="200%">
      <feDropShadow dx="0" dy="5" stdDeviation="4" flood-color="#101828" flood-opacity=".18"/>
    </filter>
  </defs>

  <g transform="translate(-12 -2) scale(.56)" filter="url(#shadow)">
    <g transform="translate(0 20)">
      <path fill="url(#coral)" d="M90 385V210C90 107 169 54 247 54c63 0 99 28 99 70-87 12-126 60-126 131v37c0 50-51 77-130 93Z"/>
      <path fill="url(#plum)" d="M221 194c75 7 117 73 134 144 14-55 8-92-23-123-17-18-7-40 16-61 34-32 39-76 65-108 34-40 73-61 127-61v264c0 91-47 153-129 153-111 0-180-84-190-208Z"/>
      <circle fill="url(#nucleus)" cx="374" cy="162" r="39"/>
      <path d="M106 374V211c0-84 62-130 135-142" fill="none" stroke="#d9fff8" stroke-opacity=".72" stroke-width="7" stroke-linecap="round"/>
      <path d="M516 8v233c0 79-37 135-108 144" fill="none" stroke="#9bbad8" stroke-opacity=".43" stroke-width="7" stroke-linecap="round"/>
      <circle cx="362" cy="150" r="17" fill="#eafffc" opacity=".30"/>
    </g>
  </g>

  <g filter="url(#textShadow)">
    <text x="315" y="158" font-family="Commissioner,Arial Rounded MT Bold,Arial,sans-serif" font-size="84" font-weight="650" letter-spacing="-3" fill="url(#type)">núcleo vivo</text>
    <text x="315" y="156" font-family="Commissioner,Arial Rounded MT Bold,Arial,sans-serif" font-size="84" font-weight="650" letter-spacing="-3" fill="none" stroke="#8fbbdd" stroke-opacity=".25" stroke-width="1.2">núcleo vivo</text>
  </g>
</svg>